<svg width="48" height="48" viewBox="0 0 48 48" fill="none" xmlns="http://www.w3.org/2000/svg">
<circle cx="24" cy="24" r="24" fill="#282727"/>
<circle cx="24" cy="24" r="23.5" stroke="white" stroke-opacity="0.32" stroke-linecap="round"/>
<g clip-path="url(#clip0_1915_1968)">
<path d="M15 17.3131V19.626H15.7893H16.5786V18.1024V16.5788H18.1022H19.6258V15.7895V15.0002H17.3129H15V17.3131Z" fill="white"/>
<path d="M28.8047 15.7895V16.5788H30.3283H31.8518V18.1024V19.626H32.6411H33.4305V17.3131V15.0002H31.1176H28.8047V15.7895Z" fill="white"/>
<path d="M21.1421 18.8289L18.084 20.3378V23.7814V27.225L21.1495 28.7559L24.215 30.2905L27.2805 28.7559L30.346 27.225V23.7814V20.3378L27.2952 18.8362C25.6174 18.0065 24.2333 17.3273 24.2186 17.3273C24.2076 17.3237 22.8199 17.9992 21.1421 18.8289ZM26.1571 20.0294C27.207 20.5434 28.0661 20.9729 28.0698 20.9839C28.0698 20.9986 27.2034 21.4318 26.1424 21.9568L24.215 22.904L22.2876 21.9531C21.2266 21.4318 20.3602 20.9949 20.3638 20.9839C20.3638 20.9582 24.1893 19.0785 24.2223 19.0859C24.237 19.0895 25.1071 19.5154 26.1571 20.0294ZM21.546 23.3519L23.444 24.288V26.2154V28.1428L21.535 27.1883L19.6259 26.2338V24.3247C19.6259 23.2748 19.6333 22.4157 19.6369 22.4157C19.6443 22.4157 20.5033 22.8379 21.546 23.3519ZM28.804 24.3247V26.2338L26.895 27.1883L24.9859 28.1428V26.2154V24.2917L26.8693 23.3555C27.9009 22.8416 28.76 22.4194 28.7783 22.4194C28.793 22.4157 28.804 23.2748 28.804 24.3247Z" fill="white"/>
<path d="M15 31.1168V33.4297H17.3129H19.6258V32.6404V31.851H18.1022H16.5786V30.3275V28.8039H15.7893H15V31.1168Z" fill="white"/>
<path d="M31.8518 30.3275V31.851H30.3283H28.8047V32.6404V33.4297H31.1176H33.4305V31.1168V28.8039H32.6411H31.8518V30.3275Z" fill="white"/>
</g>
<defs>
<clipPath id="clip0_1915_1968">
<rect width="24" height="24" fill="white" transform="translate(12 12)"/>
</clipPath>
</defs>
</svg>
